<?xml version="1.0" standalone="no"?><!DOCTYPE svg PUBLIC "-//W3C//DTD SVG 1.1//EN" "http://www.w3.org/Graphics/SVG/1.1/DTD/svg11.dtd"><svg t="1693188971192" class="icon" viewBox="0 0 1024 1024" version="1.1" xmlns="http://www.w3.org/2000/svg" p-id="1350" xmlns:xlink="http://www.w3.org/1999/xlink" width="200" height="200"><path d="M774.5 959.6H239c-59 0.4-107.1-47-107.6-106V209c-0.4-59 47-107.1 106-107.6H266.6c12.4 0 22.5 10.1 22.5 22.5v65.9c-0.3 34.2 27.1 62.2 61.3 62.5H663c34.2 0.3 62.2-27.1 62.5-61.3v-67c0-12.4 10.1-22.5 22.5-22.5h34c27.8-0.5 54.4 11.4 72.6 32.5 17.8 20.9 27.6 47.6 27.5 75.1v643c-0.5 59.2-48.4 107.1-107.6 107.5zM331.6 639.4c-28 0.1-50.6 22.8-50.5 50.8 0 2.2 0.2 4.5 0.5 6.7 5.2 24.8 27.2 42.6 52.5 42.5h195.2c25.4 0.1 47.3-17.7 52.5-42.5 4.4-27-13.9-52.5-40.9-56.9-3-0.5-6.1-0.7-9.2-0.6H331.6z m0-200.2c-28 0.1-50.6 22.8-50.5 50.8 0 2.2 0.2 4.5 0.5 6.7 5.2 24.8 27.2 42.6 52.5 42.5h345.3c25.4 0.1 47.3-17.7 52.5-42.5 4.4-27-13.9-52.5-40.9-56.9-3-0.5-6.1-0.7-9.2-0.6H331.6z" p-id="1351" ></path><path d="M419.2 63.9h175.1c34.2-0.3 62.2 27.1 62.5 61.3v1.2c0.3 34.2-27.1 62.2-61.3 62.5H419.2c-34.2 0.3-62.2-27.1-62.5-61.3v-1.2c-0.3-34.2 27.1-62.2 61.3-62.5h1.2z" p-id="1352"></path></svg>